<svg xmlns="http://www.w3.org/2000/svg" width="933.333" height="933.333" viewBox="0 0 700.000000 700.000000"><path d="M123.2 1.2c-1.1 1.5-1.1 76.7 0 78.4.6.9 32.9 1.2 122.5 1.2 67 .1 123.2.1 124.9.2h3v21.1c-.1 11.6.2 21.5.5 22 .3.6 21.7.9 53.7.9H481v38h107l.1-5.8c.2-25.2 0-74.2-.4-74.9-.3-.4-24.4-.8-53.6-.8H481V44l-4.2-.1c-2.4 0-25.8-.1-52-.1H377l-.1-3.2c-.1-1.7-.1-11-.1-20.6 0-10.5-.4-18-1-18.8C375 .3 348.5 0 249.5 0S124 .3 123.2 1.2z"/><path d="M224.5 105c-3.8.5-8.3 1.1-9.9 1.4-1.6.3-5 .8-7.5 1.2-13.1 1.8-35.3 8.1-50.1 14.1-63 25.5-111.8 73.9-138.3 136.9-7 16.6-14.4 44-16.1 59.5-.4 3.1-.9 6.7-1.2 8-1 3.8-1.2 44.9-.3 51.4.4 3.3 1 8 1.3 10.5 4.7 36.1 19.7 74.9 41.4 106.5 9.6 13.9 16.1 21.6 30.6 36 32.7 32.5 67.7 52.4 114.1 64.9 6.3 1.7 9.6 3.4 15.7 7.9 15.7 11.6 37.7 23.7 56.4 31 9.4 3.7 32 10.7 34.5 10.7.8 0 5.5 3 10.4 6.6 5 3.6 11 7.7 13.5 9.2 2.5 1.4 4.7 2.9 5 3.2 1.6 1.7 26 14 35.5 17.7 13.9 5.6 35.8 12 46 13.6 1.7.3 4.6.8 6.5 1.1 1.9.3 4.9.8 6.5 1.1 15.4 2.7 53.1 2.7 69.5 0 12.4-2 17.6-3 26-5.2 28.8-7.3 54.6-18.9 78.3-34.9 6-4.1 11.5-8 12.2-8.7.7-.7 2.2-1.9 3.4-2.7 4.7-3.2 12.1-9.9 23.2-21.1 31.2-31.4 54.1-72.3 64.4-115.4 1.3-5.5 2.8-11.4 3.2-13 1.3-5.3 1.6-80.3.3-88.5-1.1-6.9-3.2-15.8-7.5-31.5-4-15-15.9-41.1-25.9-57-9.3-14.8-13.7-20.7-25.7-34.4-32.4-37.1-75.4-63.5-124.4-76.4-7.1-1.9-10.3-3.3-15-6.9-25.3-19.2-56.3-33.8-89.3-42.3-4.6-1.2-8.4-3.1-14.3-7.5-33.3-24.7-73.3-40.5-117.9-46.5-7.1-1-46.7-1.3-54.5-.5z"/></svg>